#!OML:ASF X:\2005_08_12_Meinard\c3d\meinard.ASF
:FULLY-SPECIFIED
:DEGREES
2382
root 5.18932 16.404 -0.36323 355.921 -80.7292 -375.108
lowerback 35.8577 1.851 -3.19354
upperback 9.61085 0.120097 0.176702
thorax -7.26184 -0.42613 1.87822
lowerneck -15.8113 -2.79262 0.943801
upperneck -0.355976 -4.3657 6.08866
head 2.78767 -2.00633 1.5167
rclavicle -1.13307e-014 -3.18055e-015
rhumerus -24.794 -2.62656 -90.2478
rradius 28.3439
rwrist 34.8738
rhand -11.2625 -5.93889
rfingers 7.12502
rthumb 14.7676 -35.3928
lclavicle -1.13307e-014 -3.18055e-015
lhumerus -31.2273 -0.0299844 90.9045
lradius 63.6132
lwrist -201.558
lhand -14.6988 8.30779
lfingers 7.12502
lthumb 11.4552 37.9748
rfemur -182.955 -174.972 197.543
rtibia 51.1377
rfoot 158.596 171.639
rtoes 15.802
lfemur -174.451 174.752 -196.571
ltibia 43.3833
lfoot -22.8868 27.0767
ltoes 18.7949
2383
root 5.16404 16.4049 -0.359244 356.665 -80.9697 -375.825
lowerback 35.9813 1.89011 -3.10595
upperback 9.56178 0.190638 0.157241
thorax -7.36285 -0.390677 1.78598
lowerneck -15.5201 -2.85408 0.824089
upperneck -0.610507 -4.41083 6.19634
head 2.65391 -2.03815 1.5732
rclavicle -5.56597e-015 1.03368e-014
rhumerus -25.1755 -2.86436 -90.1614
rradius 28.4648
rwrist 34.6597
rhand -11.1991 -5.87392
rfingers 7.12502
rthumb 14.8287 -35.3233
lclavicle -5.56597e-015 1.03368e-014
lhumerus -32.1689 -0.677836 91.2716
lradius 66.3544
lwrist -200.741
lhand -15.4788 7.38594
lfingers 7.12502
lthumb 10.7029 37.0933
rfemur -183.152 -175.062 197.531
rtibia 50.7731
rfoot 158.707 170.639
rtoes 15.4783
lfemur -174.298 174.709 -196.507
ltibia 43.323
lfoot -23.0022 27.2745
ltoes 18.8331
2384
root 5.13205 16.4064 -0.355296 357.513 -81.2062 -376.653
lowerback 36.0687 1.9221 -2.9924
upperback 9.51587 0.263341 0.129499
thorax -7.44721 -0.354014 1.67036
lowerneck -15.2506 -2.91327 0.79147
upperneck -0.834008 -4.46731 6.23735
head 2.53105 -2.07658 1.59106
rclavicle 9.54166e-015 3.18055e-015
rhumerus -25.6016 -3.0707 -90.0874
rradius 28.5804
rwrist 34.4923
rhand -11.1573 -5.77372
rfingers 7.12502
rthumb 14.869 -35.2202
lclavicle 9.54166e-015 3.18055e-015
lhumerus -33.2396 -1.32874 91.6223
lradius 69.3671
lwrist -199.791
lhand -16.3289 6.40647
lfingers 7.12502
lthumb 9.88287 36.1545
rfemur -183.302 -175.112 197.537
rtibia 50.3509
rfoot 158.869 169.505
rtoes 15.198
lfemur -174.093 174.631 -196.405
ltibia 43.2355
lfoot -23.1462 27.4492
ltoes 18.8248
2385
root 5.09463 16.4107 -0.350963 358.387 -81.4448 -377.493
lowerback 36.0701 1.94917 -2.87274
upperback 9.49441 0.33515 0.0936734
thorax -7.47383 -0.318713 1.54325
lowerneck -15.017 -2.95735 0.843697
upperneck -1.04805 -4.51789 6.22443
head 2.41395 -2.11331 1.57627
rclavicle -1.19271e-014 1.59028e-015
rhumerus -25.9935 -3.24518 -90.0409
rradius 28.6599
rwrist 34.3158
rhand -11.111 -5.6881
rfingers 7.12502
rthumb 14.9136 -35.1312
lclavicle -1.19271e-014 1.59028e-015
lhumerus -34.2447 -1.9703 91.9883
lradius 72.4624
lwrist -198.844
lhand -17.1498 5.34297
lfingers 7.12502
lthumb 9.09075 35.1271
rfemur -183.423 -175.145 197.537
rtibia 49.8663
rfoot 159.042 168.311
rtoes 14.7651
lfemur -173.873 174.552 -196.305
ltibia 43.1254
lfoot -23.2613 27.5985
ltoes 18.8647
2386
root 5.05344 16.4155 -0.346128 359.326 -81.683 -378.395
lowerback 36.0613 1.97505 -2.71715
upperback 9.45358 0.420189 0.0473324
thorax -7.51807 -0.275315 1.38124
lowerneck -14.7971 -3.01673 0.949082
upperneck -1.22373 -4.59731 6.16886
head 2.31056 -2.16421 1.53622
rclavicle 1.78906e-015 7.15625e-015
rhumerus -26.464 -3.38158 -90.0017
rradius 28.8102
rwrist 34.1404
rhand -11.0089 -5.58689
rfingers 7.12502
rthumb 15.012 -35.0227
lclavicle 1.78906e-015 7.15625e-015
lhumerus -35.1517 -2.42304 92.3573
lradius 75.4558
lwrist -197.989
lhand -17.9491 4.61302
lfingers 7.12502
lthumb 8.31947 34.4292
rfemur -183.504 -175.21 197.544
rtibia 49.3428
rfoot 159.146 167.113
rtoes 14.1692
lfemur -173.625 174.561 -196.243
ltibia 43.0001
lfoot -23.4234 27.8167
ltoes 18.8273
2387
root 5.00975 16.4201 -0.341689 360.557 -81.9236 -379.583
lowerback 36.0099 1.98851 -2.506
upperback 9.42752 0.510361 -0.00419154
thorax -7.53025 -0.230024 1.18279
lowerneck -14.6278 -3.08816 1.04163
upperneck -1.37792 -4.69398 6.12953
head 2.22543 -2.22184 1.50255
rclavicle 1.88845e-014 -1.74931e-014
rhumerus -26.8963 -3.54804 -89.972
rradius 28.9297
rwrist 34.0306
rhand -10.8783 -5.46011
rfingers 7.12502
rthumb 15.1377 -34.8865
lclavicle 1.88845e-014 -1.74931e-014
lhumerus -35.9651 -3.08738 92.7183
lradius 78.4982
lwrist -196.98
lhand -18.5315 3.965
lfingers 7.12502
lthumb 7.75731 33.8027
rfemur -183.572 -175.296 197.587
rtibia 48.815
rfoot 159.203 166.017
rtoes 13.4441
lfemur -173.389 174.59 -196.155
ltibia 42.9035
lfoot -23.6064 28.0613
ltoes 18.7002
